HIERARCHY
ROOT hip
{
  OFFSET 0 0 0
  CHANNELS 6 Xposition Yposition Zposition Zrotation Yrotation Xrotation
  JOINT abdomen
  {
    OFFSET 0 20.6881 -0.73152
    CHANNELS 3 Zrotation Xrotation Yrotation
    JOINT chest
    {
      OFFSET 0 11.7043 -0.48768
      CHANNELS 3 Zrotation Xrotation Yrotation
      JOINT neck
      {
        OFFSET 0 22.1894 -2.19456
        CHANNELS 3 Zrotation Xrotation Yrotation
        JOINT head
        {
          OFFSET -0.24384 7.07133 1.2192
          CHANNELS 3 Zrotation Xrotation Yrotation
          JOINT leftEye
          {
            OFFSET 4.14528 8.04674 8.04672
            CHANNELS 3 Zrotation Xrotation Yrotation
            End Site
            {
              OFFSET 1 0 0
            }
          }
          JOINT rightEye
          {
            OFFSET -3.6576 8.04674 8.04672
            CHANNELS 3 Zrotation Xrotation Yrotation
            End Site
            {
              OFFSET 1 0 0
            }
          }
        }
      }
      JOINT rCollar
      {
        OFFSET -2.68224 19.2634 -4.8768
        CHANNELS 3 Zrotation Xrotation Yrotation
        JOINT rShldr
        {
          OFFSET -8.77824 -1.95073 1.46304
          CHANNELS 3 Zrotation Xrotation Yrotation
          JOINT rForeArm
          {
            OFFSET -28.1742 -1.7115 0.48768
            CHANNELS 3 Zrotation Xrotation Yrotation
            JOINT rHand
            {
              OFFSET -22.5879 0.773209 7.07136
              CHANNELS 3 Zrotation Xrotation Yrotation
              JOINT rThumb1
              {
                OFFSET -1.2192 -0.487915 3.41376
                CHANNELS 3 Zrotation Xrotation Yrotation
                JOINT rThumb2
                {
                  OFFSET -3.37035 -0.52449 3.41376
                  CHANNELS 3 Zrotation Xrotation Yrotation
                  End Site
                  {
                    OFFSET -1.78271 -1.18214 1.43049
                  }
                }
              }
              JOINT rIndex1
              {
                OFFSET -7.75947 0.938293 5.60832
                CHANNELS 3 Zrotation Xrotation Yrotation
                JOINT rIndex2
                {
                  OFFSET -2.54057 -0.884171 1.56538
                  CHANNELS 3 Zrotation Xrotation Yrotation
                  End Site
                  {
                    OFFSET -1.62519 -0.234802 1.16502
                  }
                }
              }
              JOINT rMid1
              {
                OFFSET -8.24714 1.18213 3.41376
                CHANNELS 3 Zrotation Xrotation Yrotation
                JOINT rMid2
                {
                  OFFSET -3.10165 -0.590103 1.0647
                  CHANNELS 3 Zrotation Xrotation Yrotation
                  End Site
                  {
                    OFFSET -2.48547 -0.328903 0.83742
                  }
                }
              }
              JOINT rRing1
              {
                OFFSET -8.82822 0.546677 1.51678
                CHANNELS 3 Zrotation Xrotation Yrotation
                JOINT rRing2
                {
                  OFFSET -2.60934 -0.819778 -0.0198488
                  CHANNELS 3 Zrotation Xrotation Yrotation
                  End Site
                  {
                    OFFSET -2.33842 -0.294052 0.168128
                  }
                }
              }
              JOINT rPinky1
              {
                OFFSET -8.27202 -0.0477905 -0.4584
                CHANNELS 3 Zrotation Xrotation Yrotation
                JOINT rPinky2
                {
                  OFFSET -1.82734 -0.647385 -0.700984
                  CHANNELS 3 Zrotation Xrotation Yrotation
                  End Site
                  {
                    OFFSET -1.69225 -0.51767 -0.607171
                  }
                }
              }
            }
          }
        }
      }
      JOINT lCollar
      {
        OFFSET 2.68224 19.2634 -4.8768
        CHANNELS 3 Zrotation Xrotation Yrotation
        JOINT lShldr
        {
          OFFSET 8.77824 -1.95073 1.46304
          CHANNELS 3 Zrotation Xrotation Yrotation
          JOINT lForeArm
          {
            OFFSET 28.1742 -1.7115 0.48768
            CHANNELS 3 Zrotation Xrotation Yrotation
            JOINT lHand
            {
              OFFSET 22.5879 0.773209 7.07136
              CHANNELS 3 Zrotation Xrotation Yrotation
              JOINT lThumb1
              {
                OFFSET 1.2192 -0.487915 3.41376
                CHANNELS 3 Zrotation Xrotation Yrotation
                JOINT lThumb2
                {
                  OFFSET 3.37035 -0.52449 3.41376
                  CHANNELS 3 Zrotation Xrotation Yrotation
                  End Site
                  {
                    OFFSET 1.78271 -1.18214 1.43049
                  }
                }
              }
              JOINT lIndex1
              {
                OFFSET 7.75947 0.938293 5.60832
                CHANNELS 3 Zrotation Xrotation Yrotation
                JOINT lIndex2
                {
                  OFFSET 2.54057 -0.884171 1.56538
                  CHANNELS 3 Zrotation Xrotation Yrotation
                  End Site
                  {
                    OFFSET 1.62519 -0.234802 1.16502
                  }
                }
              }
              JOINT lMid1
              {
                OFFSET 8.24714 1.18213 3.41376
                CHANNELS 3 Zrotation Xrotation Yrotation
                JOINT lMid2
                {
                  OFFSET 3.10165 -0.590103 1.0647
                  CHANNELS 3 Zrotation Xrotation Yrotation
                  End Site
                  {
                    OFFSET 2.48547 -0.328903 0.83742
                  }
                }
              }
              JOINT lRing1
              {
                OFFSET 8.82822 0.546677 1.51678
                CHANNELS 3 Zrotation Xrotation Yrotation
                JOINT lRing2
                {
                  OFFSET 2.60934 -0.819778 -0.0198488
                  CHANNELS 3 Zrotation Xrotation Yrotation
                  End Site
                  {
                    OFFSET 2.33842 -0.294052 0.168128
                  }
                }
              }
              JOINT lPinky1
              {
                OFFSET 8.27202 -0.0477905 -0.4584
                CHANNELS 3 Zrotation Xrotation Yrotation
                JOINT lPinky2
                {
                  OFFSET 1.82734 -0.647385 -0.700984
                  CHANNELS 3 Zrotation Xrotation Yrotation
                  End Site
                  {
                    OFFSET 1.69225 -0.51767 -0.607171
                  }
                }
              }
            }
          }
        }
      }
    }
  }
  JOINT rButtock
  {
    OFFSET -8.77824 4.35084 1.2192
    CHANNELS 3 Zrotation Xrotation Yrotation
    JOINT rThigh
    {
      OFFSET 0 -1.70687 -2.19456
      CHANNELS 3 Zrotation Xrotation Yrotation
      JOINT rShin
      {
        OFFSET 0 -36.8199 0.73152
        CHANNELS 3 Zrotation Xrotation Yrotation
        JOINT rFoot
        {
          OFFSET 0.73152 -45.1104 -5.12064
          CHANNELS 3 Zrotation Xrotation Yrotation
          End Site
          {
            OFFSET -1.1221 -3.69964 12.103
          }
        }
      }
    }
  }
  JOINT lButtock
  {
    OFFSET 8.77824 4.35084 1.2192
    CHANNELS 3 Zrotation Xrotation Yrotation
    JOINT lThigh
    {
      OFFSET 0 -1.70687 -2.19456
      CHANNELS 3 Zrotation Xrotation Yrotation
      JOINT lShin
      {
        OFFSET 0 -36.8199 0.73152
        CHANNELS 3 Zrotation Xrotation Yrotation
        JOINT lFoot
        {
          OFFSET -0.73152 -45.1104 -5.12064
          CHANNELS 3 Zrotation Xrotation Yrotation
          End Site
          {
            OFFSET 1.1221 -3.69964 12.103
          }
        }
      }
    }
  }
}
MOTION
Frames:	4
Frame Time:	0.03333
0.05367440126231052 58.69339331161784 0.39043677156808343 -66.3784408569336 -0.5662620067596436 7.833846569061279 -54.87318801879883 0.44344374537467957 11.381793975830078 38.593955993652344 -0.6141906380653381 4.361508846282959 -68.18412017822266 0.3259563148021698 11.118545532226562 76.5562973022461 -0.6198500394821167 22.693603515625 0.9999353885650635 0.1245771273970604 -5.537941932678223 0.956916093826294 0.027741000056266785 -6.241560935974121 0.9917901754379272 0.15251371264457703 -3.5587947368621826 89.66332244873047 1.7391539812088013 -1.5464006662368774 -87.89593505859375 -0.46844127774238586 93.5385971069336 -22.086963653564453 -1.3149138689041138 -1.0208196640014648 -3.3179845809936523 0.08667662739753723 2.8511745929718018 -1.5427740812301636 -0.18584904074668884 3.3830478191375732 1.8447661399841309 0.16457253694534302 1.323737382888794 69.45428466796875 0.3886277973651886 3.0314769744873047 2.9703166484832764 -0.061281271278858185 0.6267457008361816 45.2242431640625 0.053847748786211014 0.8125947117805481 2.063605546951294 0.028586074709892273 -0.18381711840629578 74.50154113769531 0.12920476496219635 4.847521781921387 -3.603250503540039 -0.15065330266952515 -3.3729000091552734 43.03677749633789 0.01573253981769085 -0.27400776743888855 1.7892234325408936 -0.19318215548992157 4.805079936981201 -88.18740844726562 0.32835033535957336 -22.834068298339844 87.43214416503906 -1.291390299797058 -90.20530700683594 27.16776466369629 0.6094641089439392 -5.739500522613525 2.707122564315796 0.07476046681404114 -5.479650020599365 5.24340295791626 -0.07131818681955338 3.8567733764648438 -4.037289619445801 0.17358526587486267 -0.5095702409744263 -75.63788604736328 0.024297542870044708 12.736394882202148 0.5936040878295898 -0.04595882445573807 2.6126785278320312 -46.94379425048828 0.12937577068805695 -0.4526990056037903 -2.99822735786438 -0.1938149631023407 6.871645450592041 -77.61736297607422 0.08615392446517944 2.2353153228759766 -1.7107008695602417 0.09662557393312454 -1.5990822315216064 -49.003448486328125 -0.3498328924179077 6.110573768615723 0.5173068642616272 -0.0979563295841217 3.331587791442871 -83.94524383544922 -1.6117596626281738 -14.644001960754395 -16.186744689941406 6.976719379425049 1.9130339622497559 -64.05347442626953 -0.6760327816009521 -16.848814010620117 0.48275330662727356 -0.005437910091131926 1.3619651794433594 88.70782470703125 -1.5507420301437378 20.0301570892334 11.702657699584961 3.70048189163208 -1.498241662979126 69.01521301269531 -0.17425696551799774 -9.406054496765137
-0.4612505720571889 62.54652158847548 -0.25203739546805554 -70.56068420410156 2.8893299102783203 22.42176628112793 -18.015979766845703 0.9601882696151733 1.1268764734268188 21.599224090576172 -1.1029753684997559 0.8353323340415955 -43.58203125 1.0920244455337524 -4.913198471069336 67.75389099121094 -1.259426474571228 -1.4988876581192017 -1.7193604707717896 -0.12629294395446777 -0.06415156275033951 0.34443649649620056 0.0010064539965242147 1.1691617965698242 -2.3898184299468994 -0.1463542878627777 4.603141784667969 85.77017211914062 1.0870035886764526 37.689144134521484 -83.1557388305664 -1.9918506145477295 62.378868103027344 -16.972396850585938 0.7977225184440613 -0.10854820907115936 -0.3723580837249756 -0.014428687281906605 -0.3669582009315491 1.5649306774139404 -0.0016053169965744019 -0.5588772892951965 -3.2440998554229736 -0.09247396886348724 -2.417653799057007 51.84672546386719 0.35699209570884705 -3.1141510009765625 0.7219295501708984 -0.11725149303674698 4.086185932159424 27.15576934814453 0.1489308625459671 1.1811469793319702 -0.22373038530349731 -0.12288537621498108 5.537596225738525 60.08038330078125 -0.014795309863984585 1.6815046072006226 1.9883825778961182 -0.04512770473957062 3.710388660430908 25.64072036743164 -0.046896617859601974 3.3243319988250732 -0.25549373030662537 0.12016543000936508 -1.1278010606765747 -87.79242706298828 4.146160125732422 -12.395764350891113 82.35680389404297 -1.2608990669250488 -70.6898422241211 17.67647933959961 -1.493973970413208 7.383573532104492 0.37054741382598877 -0.11089396476745605 4.227497100830078 -1.4356470108032227 0.13133779168128967 0.02006881684064865 -0.5932027101516724 -0.03024069219827652 5.975212574005127 -61.241729736328125 0.53192538022995 -2.564103364944458 -2.7207844257354736 -0.058194249868392944 1.3101252317428589 -26.815364837646484 0.2929938733577728 -0.9204745888710022 -0.846694827079773 0.030858993530273438 -6.037814617156982 -64.12600708007812 0.21321873366832733 -0.5178583860397339 0.9972128868103027 -0.3030606806278229 0.9741529226303101 -26.122299194335938 0.15040187537670135 0.5787439346313477 2.3637518882751465 0.04476851597428322 -3.169157028198242 -77.49849700927734 -2.442845582962036 -8.91860294342041 -8.964964866638184 10.765864372253418 3.500448226928711 -47.10029983520508 -0.21172352135181427 -3.9978725910186768 -0.17114843428134918 0.2801153063774109 4.309578895568848 81.9380111694336 -2.5249383449554443 6.861036777496338 7.062406063079834 7.6056742668151855 4.068793773651123 50.4009895324707 -1.1959556341171265 18.6967716217041
-1.928114804813821 59.22584753855536 -0.7162452259924483 -4.124861717224121 -5.584012031555176 4.867093086242676 -2.0370004177093506 16.08326530456543 4.370909214019775 3.4483256340026855 -10.596431732177734 1.264320731163025 -4.901670455932617 13.780868530273438 -2.6148016452789307 9.297029495239258 -22.297393798828125 -3.470590591430664 -0.24545477330684662 0.4962250590324402 0.0007739191642031074 -0.6473858952522278 -0.5513161420822144 -0.2540048658847809 0.22365553677082062 0.3256481885910034 -0.005442113149911165 43.277679443359375 40.362876892089844 20.815135955810547 -24.581377029418945 -30.97018051147461 73.87842559814453 -2.030911922454834 -13.096887588500977 -1.560034990310669 0.0767001286149025 1.3054956197738647 0.8616126179695129 0.6590112447738647 -0.10332755744457245 0.267569363117218 0.482800155878067 0.45932823419570923 0.07944609969854355 6.6045403480529785 5.37881326675415 0.48152369260787964 0.6876232624053955 0.02359985001385212 -0.12474177777767181 2.783353090286255 0.8033007979393005 0.4212893545627594 0.008267626166343689 0.3219930827617645 0.5102737545967102 9.17956256866455 0.3309207260608673 0.8564123511314392 -0.3201582431793213 -0.8044773936271667 0.228399395942688 2.4185662269592285 -0.34655025601387024 0.06769174337387085 0.4408086836338043 0.13320763409137726 0.7051239013671875 -52.890380859375 40.42423629760742 -26.194536209106445 25.292062759399414 -28.309459686279297 -71.19817352294922 1.3937774896621704 -16.586280822753906 1.991370439529419 0.25234052538871765 -0.28484177589416504 0.6957905292510986 0.07210876792669296 0.24703143537044525 -0.04061562940478325 -0.15029869973659515 0.5568432807922363 0.4283217191696167 -7.695765972137451 5.322162628173828 0.4374924898147583 -0.41510432958602905 -0.35868823528289795 0.8740613460540771 -2.797520637512207 0.9810088276863098 0.5613832473754883 -0.7059108018875122 -0.43563446402549744 0.3975480794906616 -9.805096626281738 0.8133928775787354 0.5178466439247131 0.402444064617157 -0.07568678259849548 0.8118661046028137 -2.034677743911743 -0.36130520701408386 0.8338285684585571 0.41579025983810425 -0.13998019695281982 0.49753645062446594 -26.066408157348633 -45.08403015136719 -20.4384822845459 -2.6215498447418213 69.07618713378906 4.379177093505859 -3.0073697566986084 -12.055200576782227 -7.81862735748291 0.23125678300857544 -0.12852928042411804 0.9219580888748169 32.489742279052734 -45.256221771240234 24.349449157714844 0.6337433457374573 69.1473388671875 -1.0666495561599731 6.071521282196045 -12.506729125976562 12.343507766723633
-3.4540962458276177 58.85507071946122 -1.2613087291897465 -5.109035491943359 8.962241172790527 -26.803211212158203 -2.1044907569885254 22.153141021728516 6.868710041046143 1.776767611503601 -9.884990692138672 2.0785038471221924 -5.136417388916016 14.179936408996582 1.91179358959198 7.053862571716309 -20.204059600830078 2.8313937187194824 -0.382969468832016 0.8097632527351379 0.6574881076812744 -0.6340029835700989 -0.5274911522865295 1.7013933658599854 0.030836958438158035 -0.10117890685796738 -0.5819998979568481 31.38619041442871 48.09891128540039 27.032276153564453 -27.295560836791992 -37.27606964111328 79.41136932373047 -1.2576572895050049 -11.884526252746582 -0.6360182166099548 0.1730826199054718 0.9322414398193359 1.3270901441574097 0.8230792284011841 0.38864755630493164 0.9218924641609192 1.1821391582489014 0.27341383695602417 -0.17928339540958405 6.605796813964844 5.343761920928955 1.782991886138916 1.034516453742981 -0.20808713138103485 0.2628185451030731 2.5104026794433594 0.429904967546463 1.7181780338287354 0.18320469558238983 0.27563732862472534 0.878628671169281 9.403189659118652 1.1643654108047485 0.39908096194267273 0.05156468600034714 -1.0631349086761475 0.9191752672195435 1.8437378406524658 -0.32823580503463745 0.7424862384796143 -0.2235134243965149 0.5702310800552368 0.997220516204834 -51.1013298034668 33.853981018066406 -29.104145050048828 25.96382713317871 -36.60792922973633 -80.1013412475586 0.5578113198280334 -25.48515510559082 4.390635967254639 -0.43934011459350586 -1.3454769849777222 0.7038741111755371 -0.21419326961040497 0.5827903151512146 0.16498330235481262 -0.4723910987377167 0.16285669803619385 0.6567689776420593 -6.766995429992676 5.925885200500488 0.513587236404419 -0.20588214695453644 -0.7585226893424988 1.3299833536148071 -3.739989995956421 0.6843343377113342 0.33334818482398987 -0.15251024067401886 -0.6299921870231628 1.9204771518707275 -11.227330207824707 0.5424142479896545 -0.07039456814527512 0.2265324890613556 -0.6139941811561584 0.7347368001937866 -2.1926205158233643 0.5129358172416687 1.0662152767181396 -0.05910808965563774 -0.029778113588690758 1.3744441270828247 -30.0632381439209 -47.838134765625 -25.04424476623535 -10.153754234313965 80.16302490234375 12.274484634399414 -2.2910749912261963 -10.56505298614502 -7.873574733734131 0.08897048979997635 0.9103884696960449 1.310697078704834 45.685752868652344 -50.76015853881836 37.59511947631836 3.740004777908325 77.91071319580078 -3.8496451377868652 2.9089255332946777 -9.282468795776367 9.572649002075195
